<svg width="1440" height="111" viewBox="0 0 1440 111" fill="none" xmlns="http://www.w3.org/2000/svg">
<g filter="url(#filter0_d_1_31)">
<rect width="1440" height="91.1841" transform="translate(0 5)" fill="white"/>
<g clip-path="url(#clip0_1_31)">
<path d="M189 21L170 34.646V69.6501L180.534 80.1841L180.302 43.4196L189 36.3082L197.698 43.4196L197.466 80.1841L208 69.6501V34.646L189 21Z" fill="#252420"/>
<path d="M195.994 50.5921L189 54.791L182.006 50.5921V62.8506L189 67.055L195.994 62.8506V50.5921Z" fill="#FF7401"/>
</g>
<path d="M232.688 56.9358H226.422L225.203 61.5921H220.344L227.453 38.8421H231.656L238.812 61.5921H233.906L232.688 56.9358ZM227.422 53.1077H231.672L229.547 44.9983L227.422 53.1077ZM246.344 55.0764L245.156 56.4046V61.5921H240.734V37.5921H245.156V50.5608L245.703 49.7483L248.766 44.6858H254.031L249.125 51.6546L254.5 61.5921H249.438L246.344 55.0764ZM264.078 61.5921C263.953 61.3317 263.828 60.8942 263.703 60.2796C262.911 61.3629 261.839 61.9046 260.484 61.9046C259.068 61.9046 257.891 61.4358 256.953 60.4983C256.026 59.5608 255.562 58.3473 255.562 56.8577C255.562 55.0869 256.125 53.7171 257.25 52.7483C258.385 51.7796 260.016 51.2848 262.141 51.2639H263.484V49.9046C263.484 49.1442 263.354 48.6077 263.094 48.2952C262.833 47.9827 262.453 47.8264 261.953 47.8264C260.849 47.8264 260.297 48.4723 260.297 49.7639H255.875C255.875 48.2014 256.458 46.915 257.625 45.9046C258.802 44.8837 260.286 44.3733 262.078 44.3733C263.932 44.3733 265.365 44.8577 266.375 45.8264C267.396 46.7848 267.906 48.1598 267.906 49.9514V57.9046C267.927 59.3629 268.135 60.5035 268.531 61.3264V61.5921H264.078ZM261.469 58.4358C261.958 58.4358 262.375 58.3369 262.719 58.1389C263.062 57.941 263.318 57.7067 263.484 57.4358V53.9202H262.422C261.672 53.9202 261.078 54.1598 260.641 54.6389C260.214 55.1181 260 55.7587 260 56.5608C260 57.8108 260.49 58.4358 261.469 58.4358ZM270.516 52.6233C270.516 49.8525 270.984 47.7848 271.922 46.4202C272.859 45.0556 274.224 44.3733 276.016 44.3733C277.318 44.3733 278.401 44.9358 279.266 46.0608V37.5921H283.719V61.5921H279.703L279.5 59.8733C278.594 61.2275 277.427 61.9046 276 61.9046C274.229 61.9046 272.875 61.2275 271.938 59.8733C271.01 58.5192 270.536 56.5296 270.516 53.9046V52.6233ZM274.953 53.7327C274.953 55.3994 275.13 56.566 275.484 57.2327C275.839 57.8889 276.438 58.2171 277.281 58.2171C278.156 58.2171 278.818 57.8264 279.266 57.0452V49.3264C278.828 48.4931 278.172 48.0764 277.297 48.0764C276.484 48.0764 275.891 48.4046 275.516 49.0608C275.141 49.7171 274.953 50.8837 274.953 52.5608V53.7327ZM293.812 61.9046C291.542 61.9046 289.771 61.2275 288.5 59.8733C287.229 58.5192 286.594 56.5817 286.594 54.0608V52.7171C286.594 50.0504 287.177 47.9931 288.344 46.5452C289.51 45.0973 291.182 44.3733 293.359 44.3733C295.484 44.3733 297.083 45.0556 298.156 46.4202C299.229 47.7744 299.776 49.7848 299.797 52.4514V54.6233H291C291.062 55.8733 291.339 56.79 291.828 57.3733C292.318 57.9462 293.073 58.2327 294.094 58.2327C295.573 58.2327 296.807 57.7275 297.797 56.7171L299.531 59.3889C298.99 60.1389 298.203 60.7483 297.172 61.2171C296.141 61.6754 295.021 61.9046 293.812 61.9046ZM291.031 51.5296H295.453V51.1233C295.432 50.1129 295.266 49.3473 294.953 48.8264C294.641 48.3056 294.099 48.0452 293.328 48.0452C292.557 48.0452 291.995 48.3212 291.641 48.8733C291.297 49.4254 291.094 50.3108 291.031 51.5296ZM306.453 44.6858L306.578 46.2483C307.568 44.9983 308.875 44.3733 310.5 44.3733C312.188 44.3733 313.38 45.1337 314.078 46.6546C315.047 45.1337 316.427 44.3733 318.219 44.3733C321.177 44.3733 322.693 46.4202 322.766 50.5139V61.5921H318.344V50.7952C318.344 49.816 318.208 49.1181 317.938 48.7014C317.667 48.2848 317.208 48.0764 316.562 48.0764C315.74 48.0764 315.125 48.5817 314.719 49.5921L314.75 50.1233V61.5921H310.328V50.8264C310.328 49.8577 310.198 49.1598 309.938 48.7327C309.677 48.2952 309.214 48.0764 308.547 48.0764C307.786 48.0764 307.182 48.4879 306.734 49.3108V61.5921H302.312V44.6858H306.453Z" fill="#252420"/>
<path d="M330.094 44.6858L330.219 46.3577C331.219 45.0348 332.526 44.3733 334.141 44.3733C337.047 44.3733 338.542 46.4098 338.625 50.4827V61.5921H334.188V50.8108C334.188 49.8525 334.042 49.1598 333.75 48.7327C333.469 48.2952 332.969 48.0764 332.25 48.0764C331.448 48.0764 330.823 48.4879 330.375 49.3108V61.5921H325.938V44.6858H330.094ZM349.828 61.5921C349.703 61.3317 349.578 60.8942 349.453 60.2796C348.661 61.3629 347.589 61.9046 346.234 61.9046C344.818 61.9046 343.641 61.4358 342.703 60.4983C341.776 59.5608 341.312 58.3473 341.312 56.8577C341.312 55.0869 341.875 53.7171 343 52.7483C344.135 51.7796 345.766 51.2848 347.891 51.2639H349.234V49.9046C349.234 49.1442 349.104 48.6077 348.844 48.2952C348.583 47.9827 348.203 47.8264 347.703 47.8264C346.599 47.8264 346.047 48.4723 346.047 49.7639H341.625C341.625 48.2014 342.208 46.915 343.375 45.9046C344.552 44.8837 346.036 44.3733 347.828 44.3733C349.682 44.3733 351.115 44.8577 352.125 45.8264C353.146 46.7848 353.656 48.1598 353.656 49.9514V57.9046C353.677 59.3629 353.885 60.5035 354.281 61.3264V61.5921H349.828ZM347.219 58.4358C347.708 58.4358 348.125 58.3369 348.469 58.1389C348.812 57.941 349.068 57.7067 349.234 57.4358V53.9202H348.172C347.422 53.9202 346.828 54.1598 346.391 54.6389C345.964 55.1181 345.75 55.7587 345.75 56.5608C345.75 57.8108 346.24 58.4358 347.219 58.4358ZM364.344 57.0608C364.344 56.6858 364.161 56.3421 363.797 56.0296C363.443 55.7067 362.646 55.2744 361.406 54.7327C359.583 53.9931 358.328 53.2275 357.641 52.4358C356.964 51.6442 356.625 50.6598 356.625 49.4827C356.625 48.0035 357.156 46.7848 358.219 45.8264C359.292 44.8577 360.708 44.3733 362.469 44.3733C364.323 44.3733 365.807 44.8525 366.922 45.8108C368.036 46.7692 368.594 48.0556 368.594 49.6702H364.172C364.172 48.2952 363.599 47.6077 362.453 47.6077C361.984 47.6077 361.599 47.7535 361.297 48.0452C360.995 48.3369 360.844 48.7431 360.844 49.2639C360.844 49.6389 361.01 49.9723 361.344 50.2639C361.677 50.5452 362.464 50.9514 363.703 51.4827C365.505 52.1494 366.776 52.8942 367.516 53.7171C368.266 54.5296 368.641 55.5869 368.641 56.8889C368.641 58.3994 368.073 59.6129 366.938 60.5296C365.802 61.4462 364.312 61.9046 362.469 61.9046C361.229 61.9046 360.135 61.665 359.188 61.1858C358.24 60.6962 357.495 60.0192 356.953 59.1546C356.422 58.29 356.156 57.3577 356.156 56.3577H360.359C360.38 57.1285 360.557 57.7067 360.891 58.0921C361.234 58.4775 361.792 58.6702 362.562 58.6702C363.75 58.6702 364.344 58.1337 364.344 57.0608ZM375.703 46.1702C376.661 44.9723 377.839 44.3733 379.234 44.3733C380.776 44.3733 381.948 44.915 382.75 45.9983C383.552 47.0817 383.958 48.6962 383.969 50.8421V61.5921H379.531V50.8889C379.531 49.8994 379.375 49.1858 379.062 48.7483C378.76 48.3004 378.266 48.0764 377.578 48.0764C376.776 48.0764 376.151 48.4462 375.703 49.1858V61.5921H371.281V37.5921H375.703V46.1702ZM395.484 48.9514L394.016 48.8264C392.807 48.8264 391.99 49.3577 391.562 50.4202V61.5921H387.125V44.6858H391.297L391.422 46.5139C392.12 45.0869 393.083 44.3733 394.312 44.3733C394.812 44.3733 395.219 44.441 395.531 44.5764L395.484 48.9514Z" fill="#FF7500"/>
<path d="M660.939 55.5921V46.3499H664.107C665.152 46.3499 665.948 46.5594 666.494 46.9783C667.04 47.3972 667.312 48.0214 667.312 48.8509C667.312 49.274 667.198 49.6549 666.97 49.9934C666.741 50.332 666.407 50.5944 665.967 50.7805C666.466 50.916 666.851 51.172 667.122 51.5486C667.397 51.921 667.535 52.3696 667.535 52.8943C667.535 53.7618 667.255 54.4283 666.697 54.8938C666.142 55.3593 665.347 55.5921 664.31 55.5921H660.939ZM662.545 51.4217V54.3098H664.329C664.833 54.3098 665.226 54.185 665.51 53.9353C665.793 53.6857 665.935 53.3387 665.935 52.8943C665.935 51.9337 665.444 51.4428 664.462 51.4217H662.545ZM662.545 50.241H664.12C664.619 50.241 665.008 50.1289 665.288 49.9046C665.571 49.6761 665.713 49.3544 665.713 48.9397C665.713 48.4827 665.582 48.1526 665.319 47.9495C665.061 47.7464 664.657 47.6448 664.107 47.6448H662.545V50.241ZM677.517 51.2122C677.517 52.1178 677.36 52.9134 677.047 53.5989C676.734 54.2802 676.285 54.805 675.701 55.1731C675.121 55.5371 674.453 55.719 673.695 55.719C672.946 55.719 672.278 55.5371 671.689 55.1731C671.105 54.805 670.653 54.2823 670.331 53.6053C670.014 52.9282 669.853 52.1474 669.849 51.263V50.7425C669.849 49.8411 670.007 49.0455 670.325 48.3557C670.646 47.666 671.097 47.1391 671.677 46.7752C672.261 46.407 672.929 46.2229 673.683 46.2229C674.436 46.2229 675.102 46.4049 675.682 46.7688C676.266 47.1285 676.717 47.649 677.034 48.3304C677.352 49.0074 677.512 49.7967 677.517 50.698V51.2122ZM675.911 50.7298C675.911 49.7057 675.716 48.9207 675.327 48.3748C674.942 47.8289 674.394 47.5559 673.683 47.5559C672.989 47.5559 672.445 47.8289 672.051 48.3748C671.662 48.9165 671.463 49.6845 671.455 50.679V51.2122C671.455 52.2278 671.651 53.0128 672.045 53.5672C672.443 54.1215 672.993 54.3987 673.695 54.3987C674.406 54.3987 674.952 54.1279 675.333 53.5862C675.718 53.0445 675.911 52.2532 675.911 51.2122V50.7298ZM684.947 53.2117C684.947 52.8055 684.803 52.4923 684.515 52.2722C684.232 52.0522 683.717 51.83 682.973 51.6057C682.228 51.3815 681.635 51.1318 681.195 50.8567C680.353 50.3277 679.932 49.638 679.932 48.7874C679.932 48.0426 680.235 47.429 680.84 46.9466C681.449 46.4641 682.238 46.2229 683.208 46.2229C683.851 46.2229 684.424 46.3414 684.928 46.5784C685.431 46.8154 685.827 47.1539 686.115 47.594C686.403 48.0299 686.546 48.5144 686.546 49.0476H684.947C684.947 48.5652 684.794 48.1886 684.49 47.9178C684.189 47.6427 683.758 47.5052 683.195 47.5052C682.67 47.5052 682.262 47.6173 681.97 47.8416C681.682 48.0659 681.538 48.379 681.538 48.781C681.538 49.1196 681.695 49.4031 682.008 49.6316C682.321 49.8559 682.837 50.076 683.557 50.2918C684.276 50.5034 684.854 50.7467 685.29 51.0218C685.725 51.2926 686.045 51.6057 686.248 51.9612C686.451 52.3124 686.553 52.725 686.553 53.199C686.553 53.9692 686.257 54.5828 685.664 55.0398C685.076 55.4926 684.276 55.719 683.265 55.719C682.596 55.719 681.98 55.5963 681.417 55.3509C680.859 55.1012 680.423 54.7584 680.11 54.3225C679.801 53.8867 679.646 53.3789 679.646 52.7991H681.252C681.252 53.3238 681.426 53.7301 681.773 54.0179C682.12 54.3056 682.617 54.4495 683.265 54.4495C683.823 54.4495 684.242 54.3374 684.521 54.1131C684.805 53.8846 684.947 53.5841 684.947 53.2117ZM696.3 55.5921H694.7V51.4851H690.568V55.5921H688.962V46.3499H690.568V50.1966H694.7V46.3499H696.3V55.5921ZM708.272 53.2117C708.272 52.8055 708.128 52.4923 707.84 52.2722C707.557 52.0522 707.043 51.83 706.298 51.6057C705.553 51.3815 704.961 51.1318 704.521 50.8567C703.678 50.3277 703.257 49.638 703.257 48.7874C703.257 48.0426 703.56 47.429 704.165 46.9466C704.774 46.4641 705.564 46.2229 706.533 46.2229C707.176 46.2229 707.749 46.3414 708.253 46.5784C708.757 46.8154 709.152 47.1539 709.44 47.594C709.728 48.0299 709.872 48.5144 709.872 49.0476H708.272C708.272 48.5652 708.12 48.1886 707.815 47.9178C707.514 47.6427 707.083 47.5052 706.52 47.5052C705.995 47.5052 705.587 47.6173 705.295 47.8416C705.007 48.0659 704.863 48.379 704.863 48.781C704.863 49.1196 705.02 49.4031 705.333 49.6316C705.646 49.8559 706.162 50.076 706.882 50.2918C707.601 50.5034 708.179 50.7467 708.615 51.0218C709.051 51.2926 709.37 51.6057 709.573 51.9612C709.776 52.3124 709.878 52.725 709.878 53.199C709.878 53.9692 709.582 54.5828 708.989 55.0398C708.401 55.4926 707.601 55.719 706.59 55.719C705.921 55.719 705.306 55.5963 704.743 55.3509C704.184 55.1012 703.748 54.7584 703.435 54.3225C703.126 53.8867 702.972 53.3789 702.972 52.7991H704.578C704.578 53.3238 704.751 53.7301 705.098 54.0179C705.445 54.3056 705.942 54.4495 706.59 54.4495C707.148 54.4495 707.567 54.3374 707.847 54.1131C708.13 53.8846 708.272 53.5841 708.272 53.2117ZM717.46 53.4402H713.88L713.131 55.5921H711.462L714.953 46.3499H716.394L719.892 55.5921H718.216L717.46 53.4402ZM714.331 52.1453H717.01L715.67 48.3113L714.331 52.1453ZM729.283 55.5921H727.684V51.4851H723.551V55.5921H721.945V46.3499H723.551V50.1966H727.684V46.3499H729.283V55.5921ZM733.882 55.5921H732.283V46.3499H733.882V55.5921ZM742.182 51.6756H738.462V55.5921H736.856V46.3499H742.728V47.6448H738.462V50.3933H742.182V51.6756ZM748.958 53.4402H745.378L744.629 55.5921H742.96L746.451 46.3499H747.892L751.39 55.5921H749.714L748.958 53.4402ZM745.829 52.1453H748.508L747.168 48.3113L745.829 52.1453Z" fill="black"/>
<rect x="660" y="62.5921" width="92" height="3" fill="#FF7500"/>
<path d="M787.593 51.0994L786.545 52.2102V55.0921H784.939V45.8499H786.545V50.1853L787.434 49.0872L790.138 45.8499H792.081L788.646 49.9441L792.277 55.0921H790.373L787.593 51.0994ZM795.835 55.0921H794.236V45.8499H795.835V55.0921ZM805.297 47.1448H802.415V55.0921H800.822V47.1448H797.965V45.8499H805.297V47.1448ZM814.714 50.7122C814.714 51.6178 814.557 52.4134 814.244 53.0989C813.931 53.7802 813.482 54.305 812.898 54.6731C812.319 55.0371 811.65 55.219 810.893 55.219C810.144 55.219 809.475 55.0371 808.887 54.6731C808.303 54.305 807.85 53.7823 807.528 53.1053C807.211 52.4282 807.05 51.6474 807.046 50.763V50.2425C807.046 49.3411 807.205 48.5455 807.522 47.8557C807.844 47.166 808.294 46.6391 808.874 46.2752C809.458 45.907 810.127 45.7229 810.88 45.7229C811.633 45.7229 812.3 45.9049 812.879 46.2688C813.463 46.6285 813.914 47.149 814.231 47.8304C814.549 48.5074 814.71 49.2967 814.714 50.198V50.7122ZM813.108 50.2298C813.108 49.2057 812.913 48.4207 812.524 47.8748C812.139 47.3289 811.591 47.0559 810.88 47.0559C810.186 47.0559 809.642 47.3289 809.249 47.8748C808.859 48.4165 808.66 49.1845 808.652 50.179V50.7122C808.652 51.7278 808.849 52.5128 809.242 53.0672C809.64 53.6215 810.19 53.8987 810.893 53.8987C811.604 53.8987 812.149 53.6279 812.53 53.0862C812.915 52.5445 813.108 51.7532 813.108 50.7122V50.2298ZM817.313 55.0921V45.8499H820.481C821.526 45.8499 822.322 46.0594 822.868 46.4783C823.414 46.8972 823.687 47.5214 823.687 48.3509C823.687 48.774 823.572 49.1549 823.344 49.4934C823.115 49.832 822.781 50.0944 822.341 50.2805C822.84 50.416 823.225 50.672 823.496 51.0486C823.771 51.421 823.909 51.8696 823.909 52.3943C823.909 53.2618 823.629 53.9283 823.071 54.3938C822.516 54.8593 821.721 55.0921 820.684 55.0921H817.313ZM818.919 50.9217V53.8098H820.703C821.207 53.8098 821.6 53.685 821.884 53.4353C822.167 53.1857 822.309 52.8387 822.309 52.3943C822.309 51.4337 821.818 50.9428 820.836 50.9217H818.919ZM818.919 49.741H820.494C820.993 49.741 821.382 49.6289 821.662 49.4046C821.945 49.1761 822.087 48.8544 822.087 48.4397C822.087 47.9827 821.956 47.6526 821.693 47.4495C821.435 47.2464 821.031 47.1448 820.481 47.1448H818.919V49.741ZM828.121 53.8098H832.316V55.0921H826.515V45.8499H828.121V53.8098ZM839.848 52.9402H836.268L835.519 55.0921H833.85L837.341 45.8499H838.782L842.279 55.0921H840.604L839.848 52.9402ZM836.719 51.6453H839.397L838.058 47.8113L836.719 51.6453ZM847.729 51.531H845.939V55.0921H844.333V45.8499H847.583C848.649 45.8499 849.472 46.089 850.052 46.5672C850.632 47.0454 850.922 47.7373 850.922 48.6429C850.922 49.2607 850.772 49.7791 850.471 50.198C850.175 50.6127 849.76 50.9322 849.227 51.1565L851.303 55.0096V55.0921H849.583L847.729 51.531ZM845.939 50.2425H847.589C848.131 50.2425 848.554 50.107 848.859 49.8362C849.164 49.5611 849.316 49.1866 849.316 48.7127C849.316 48.2176 849.174 47.8346 848.891 47.5638C848.611 47.2929 848.192 47.1533 847.634 47.1448H845.939V50.2425Z" fill="black"/>
<path d="M890.113 52.9402H886.533L885.784 55.0921H884.114L887.605 45.8499H889.046L892.544 55.0921H890.868L890.113 52.9402ZM886.983 51.6453H889.662L888.323 47.8113L886.983 51.6453ZM897.251 51.0994L896.204 52.2102V55.0921H894.598V45.8499H896.204V50.1853L897.092 49.0872L899.796 45.8499H901.739L898.305 49.9441L901.936 55.0921H900.031L897.251 51.0994ZM908.629 52.7117C908.629 52.3055 908.486 51.9923 908.198 51.7722C907.914 51.5522 907.4 51.33 906.655 51.1057C905.91 50.8815 905.318 50.6318 904.878 50.3567C904.036 49.8277 903.615 49.138 903.615 48.2874C903.615 47.5426 903.917 46.929 904.522 46.4466C905.132 45.9641 905.921 45.7229 906.89 45.7229C907.533 45.7229 908.107 45.8414 908.61 46.0784C909.114 46.3154 909.51 46.6539 909.797 47.094C910.085 47.5299 910.229 48.0144 910.229 48.5476H908.629C908.629 48.0652 908.477 47.6886 908.172 47.4178C907.872 47.1427 907.44 47.0052 906.877 47.0052C906.353 47.0052 905.944 47.1173 905.652 47.3416C905.365 47.5659 905.221 47.879 905.221 48.281C905.221 48.6196 905.377 48.9031 905.69 49.1316C906.004 49.3559 906.52 49.576 907.239 49.7918C907.959 50.0034 908.536 50.2467 908.972 50.5218C909.408 50.7926 909.728 51.1057 909.931 51.4612C910.134 51.8124 910.235 52.225 910.235 52.699C910.235 53.4692 909.939 54.0828 909.347 54.5398C908.758 54.9926 907.959 55.219 906.947 55.219C906.279 55.219 905.663 55.0963 905.1 54.8509C904.542 54.6012 904.106 54.2584 903.792 53.8225C903.484 53.3867 903.329 52.8789 903.329 52.2991H904.935C904.935 52.8238 905.109 53.2301 905.456 53.5179C905.803 53.8056 906.3 53.9495 906.947 53.9495C907.506 53.9495 907.925 53.8374 908.204 53.6131C908.488 53.3846 908.629 53.0841 908.629 52.7117ZM914.339 55.0921H912.74V45.8499H914.339V55.0921ZM920.151 50.2298L922.277 45.8499H924.055L920.957 51.6897V55.0921H919.345V51.6897L916.241 45.8499H918.024L920.151 50.2298ZM930.279 52.9402H926.699L925.95 55.0921H924.28L927.771 45.8499H929.212L932.71 55.0921H931.034L930.279 52.9402ZM927.149 51.6453H929.828L928.489 47.8113L927.149 51.6453ZM936.37 53.8098H940.565V55.0921H934.764V45.8499H936.37V53.8098ZM948.097 52.9402H944.517L943.768 55.0921H942.099L945.59 45.8499H947.031L950.528 55.0921H948.853L948.097 52.9402ZM944.968 51.6453H947.646L946.307 47.8113L944.968 51.6453ZM955.978 51.531H954.188V55.0921H952.582V45.8499H955.832C956.898 45.8499 957.722 46.089 958.301 46.5672C958.881 47.0454 959.171 47.7373 959.171 48.6429C959.171 49.2607 959.021 49.7791 958.72 50.198C958.424 50.6127 958.009 50.9322 957.476 51.1565L959.552 55.0096V55.0921H957.832L955.978 51.531ZM954.188 50.2425H955.838C956.38 50.2425 956.803 50.107 957.108 49.8362C957.413 49.5611 957.565 49.1866 957.565 48.7127C957.565 48.2176 957.423 47.8346 957.14 47.5638C956.86 47.2929 956.441 47.1533 955.883 47.1448H954.188V50.2425Z" fill="black"/>
<path d="M995.593 51.0994L994.545 52.2102V55.0921H992.939V45.8499H994.545V50.1853L995.434 49.0872L998.138 45.8499H1000.08L996.646 49.9441L1000.28 55.0921H998.373L995.593 51.0994ZM1009.31 50.7122C1009.31 51.6178 1009.16 52.4134 1008.84 53.0989C1008.53 53.7802 1008.08 54.305 1007.5 54.6731C1006.92 55.0371 1006.25 55.219 1005.49 55.219C1004.74 55.219 1004.07 55.0371 1003.49 54.6731C1002.9 54.305 1002.45 53.7823 1002.13 53.1053C1001.81 52.4282 1001.65 51.6474 1001.65 50.763V50.2425C1001.65 49.3411 1001.8 48.5455 1002.12 47.8557C1002.44 47.166 1002.89 46.6391 1003.47 46.2752C1004.06 45.907 1004.73 45.7229 1005.48 45.7229C1006.23 45.7229 1006.9 45.9049 1007.48 46.2688C1008.06 46.6285 1008.51 47.149 1008.83 47.8304C1009.15 48.5074 1009.31 49.2967 1009.31 50.198V50.7122ZM1007.71 50.2298C1007.71 49.2057 1007.51 48.4207 1007.12 47.8748C1006.74 47.3289 1006.19 47.0559 1005.48 47.0559C1004.79 47.0559 1004.24 47.3289 1003.85 47.8748C1003.46 48.4165 1003.26 49.1845 1003.25 50.179V50.7122C1003.25 51.7278 1003.45 52.5128 1003.84 53.0672C1004.24 53.6215 1004.79 53.8987 1005.49 53.8987C1006.2 53.8987 1006.75 53.6279 1007.13 53.0862C1007.51 52.5445 1007.71 51.7532 1007.71 50.7122V50.2298ZM1019.24 55.0921H1017.64L1013.52 48.5349V55.0921H1011.91V45.8499H1013.52L1017.65 52.4324V45.8499H1019.24V55.0921ZM1028.63 47.1448H1025.75V55.0921H1024.15V47.1448H1021.3V45.8499H1028.63V47.1448ZM1035.26 52.9402H1031.68L1030.93 55.0921H1029.26L1032.75 45.8499H1034.19L1037.69 55.0921H1036.02L1035.26 52.9402ZM1032.13 51.6453H1034.81L1033.47 47.8113L1032.13 51.6453ZM1042.4 51.0994L1041.35 52.2102V55.0921H1039.75V45.8499H1041.35V50.1853L1042.24 49.0872L1044.94 45.8499H1046.89L1043.45 49.9441L1047.08 55.0921H1045.18L1042.4 51.0994ZM1055.62 47.1448H1052.74V55.0921H1051.15V47.1448H1048.29V45.8499H1055.62V47.1448ZM1059.45 53.8098H1063.64V55.0921H1057.84V45.8499H1059.45V53.8098ZM1071.18 52.9402H1067.6L1066.85 55.0921H1065.18L1068.67 45.8499H1070.11L1073.61 55.0921H1071.93L1071.18 52.9402ZM1068.05 51.6453H1070.73L1069.39 47.8113L1068.05 51.6453ZM1079.06 51.531H1077.27V55.0921H1075.66V45.8499H1078.91C1079.98 45.8499 1080.8 46.089 1081.38 46.5672C1081.96 47.0454 1082.25 47.7373 1082.25 48.6429C1082.25 49.2607 1082.1 49.7791 1081.8 50.198C1081.5 50.6127 1081.09 50.9322 1080.56 51.1565L1082.63 55.0096V55.0921H1080.91L1079.06 51.531ZM1077.27 50.2425H1078.92C1079.46 50.2425 1079.88 50.107 1080.19 49.8362C1080.49 49.5611 1080.64 49.1866 1080.64 48.7127C1080.64 48.2176 1080.5 47.8346 1080.22 47.5638C1079.94 47.2929 1079.52 47.1533 1078.96 47.1448H1077.27V50.2425Z" fill="black"/>
<rect x="1115" y="31.0921" width="155" height="39" rx="4" fill="#FF7500"/>
<path d="M1139.83 45.8499H1143.27C1143.98 45.8499 1144.59 45.9557 1145.09 46.1673C1145.61 46.3789 1146 46.692 1146.27 47.1067C1146.55 47.5214 1146.69 48.0314 1146.69 48.6365C1146.69 49.1316 1146.6 49.5569 1146.43 49.9124C1146.27 50.2636 1146.03 50.5577 1145.73 50.7947C1145.43 51.0275 1145.07 51.2137 1144.67 51.3533L1144.07 51.6707H1141.07L1141.06 50.1853H1143.28C1143.62 50.1853 1143.9 50.1261 1144.12 50.0076C1144.34 49.8891 1144.5 49.7241 1144.61 49.5125C1144.73 49.3009 1144.78 49.0555 1144.78 48.7762C1144.78 48.4799 1144.73 48.2239 1144.62 48.0081C1144.51 47.7923 1144.34 47.6272 1144.12 47.513C1143.89 47.3987 1143.61 47.3416 1143.27 47.3416H1141.73V55.0921H1139.83V45.8499ZM1144.99 55.0921L1142.88 50.9724L1144.9 50.9597L1147.03 55.0032V55.0921H1144.99ZM1148.25 51.7278V51.5945C1148.25 51.0909 1148.32 50.6276 1148.46 50.2044C1148.61 49.777 1148.82 49.4067 1149.09 49.0935C1149.37 48.7804 1149.7 48.5371 1150.11 48.3636C1150.51 48.1858 1150.97 48.097 1151.49 48.097C1152.01 48.097 1152.47 48.1858 1152.88 48.3636C1153.29 48.5371 1153.63 48.7804 1153.9 49.0935C1154.18 49.4067 1154.39 49.777 1154.54 50.2044C1154.68 50.6276 1154.75 51.0909 1154.75 51.5945V51.7278C1154.75 52.2272 1154.68 52.6905 1154.54 53.118C1154.39 53.5411 1154.18 53.9114 1153.9 54.2288C1153.63 54.5419 1153.29 54.7853 1152.89 54.9588C1152.49 55.1323 1152.02 55.219 1151.5 55.219C1150.98 55.219 1150.52 55.1323 1150.11 54.9588C1149.71 54.7853 1149.37 54.5419 1149.09 54.2288C1148.82 53.9114 1148.61 53.5411 1148.46 53.118C1148.32 52.6905 1148.25 52.2272 1148.25 51.7278ZM1150.08 51.5945V51.7278C1150.08 52.0156 1150.1 52.2843 1150.15 52.534C1150.2 52.7836 1150.28 53.0037 1150.39 53.1941C1150.51 53.3803 1150.65 53.5263 1150.84 53.6321C1151.02 53.7379 1151.24 53.7908 1151.5 53.7908C1151.76 53.7908 1151.98 53.7379 1152.16 53.6321C1152.34 53.5263 1152.49 53.3803 1152.6 53.1941C1152.71 53.0037 1152.79 52.7836 1152.84 52.534C1152.89 52.2843 1152.92 52.0156 1152.92 51.7278V51.5945C1152.92 51.3152 1152.89 51.0528 1152.84 50.8074C1152.79 50.5577 1152.7 50.3377 1152.59 50.1472C1152.48 49.9526 1152.33 49.8002 1152.15 49.6902C1151.97 49.5802 1151.75 49.5252 1151.49 49.5252C1151.23 49.5252 1151.01 49.5802 1150.83 49.6902C1150.65 49.8002 1150.51 49.9526 1150.39 50.1472C1150.28 50.3377 1150.2 50.5577 1150.15 50.8074C1150.1 51.0528 1150.08 51.3152 1150.08 51.5945ZM1157.4 45.3421V46.3069C1157.4 46.582 1157.35 46.8655 1157.24 47.1575C1157.14 47.4495 1157 47.7267 1156.83 47.989C1156.65 48.2472 1156.46 48.4672 1156.26 48.6492L1155.4 48.1541C1155.56 47.9044 1155.69 47.6336 1155.8 47.3416C1155.91 47.0454 1155.96 46.7026 1155.96 46.3133V45.3421H1157.4ZM1161.25 54.3177L1163.07 48.2239H1165.03L1162.27 56.1267C1162.21 56.3002 1162.13 56.4864 1162.03 56.6853C1161.93 56.8842 1161.8 57.0725 1161.63 57.2503C1161.47 57.4322 1161.26 57.5804 1161 57.6946C1160.75 57.8089 1160.45 57.866 1160.08 57.866C1159.91 57.866 1159.77 57.8554 1159.66 57.8343C1159.55 57.8131 1159.42 57.7835 1159.26 57.7454V56.406C1159.31 56.406 1159.36 56.406 1159.41 56.406C1159.46 56.4103 1159.51 56.4124 1159.56 56.4124C1159.8 56.4124 1159.99 56.3849 1160.15 56.3299C1160.3 56.2749 1160.42 56.1902 1160.51 56.076C1160.61 55.9659 1160.68 55.8221 1160.74 55.6443L1161.25 54.3177ZM1160.49 48.2239L1161.98 53.2005L1162.24 55.1365L1161 55.2698L1158.53 48.2239H1160.49ZM1167.74 48.2239L1168.87 50.3123L1170.04 48.2239H1171.99L1170.05 51.5818L1172.08 55.0921H1170.12L1168.89 52.8831L1167.65 55.0921H1165.69L1167.72 51.5818L1165.78 48.2239H1167.74ZM1177.08 53.5432V50.4837C1177.08 50.2636 1177.05 50.0753 1176.98 49.9187C1176.91 49.7579 1176.79 49.6331 1176.64 49.5442C1176.49 49.4554 1176.3 49.4109 1176.06 49.4109C1175.86 49.4109 1175.68 49.4469 1175.54 49.5188C1175.39 49.5865 1175.27 49.686 1175.19 49.8172C1175.11 49.9441 1175.07 50.0944 1175.07 50.2679H1173.24C1173.24 49.9759 1173.31 49.6987 1173.45 49.4363C1173.58 49.1739 1173.78 48.9433 1174.04 48.7444C1174.3 48.5413 1174.6 48.3826 1174.96 48.2683C1175.32 48.1541 1175.72 48.097 1176.16 48.097C1176.7 48.097 1177.17 48.1858 1177.59 48.3636C1178 48.5413 1178.33 48.8079 1178.56 49.1634C1178.81 49.5188 1178.93 49.9632 1178.93 50.4964V53.4353C1178.93 53.812 1178.95 54.1209 1179 54.3621C1179.04 54.5991 1179.11 54.8064 1179.2 54.9842V55.0921H1177.35C1177.26 54.9059 1177.19 54.6731 1177.15 54.3938C1177.11 54.1103 1177.08 53.8268 1177.08 53.5432ZM1177.33 50.909L1177.34 51.9436H1176.32C1176.08 51.9436 1175.87 51.9711 1175.69 52.0262C1175.51 52.0812 1175.36 52.1595 1175.25 52.261C1175.14 52.3583 1175.05 52.4726 1175 52.6038C1174.95 52.735 1174.92 52.8789 1174.92 53.0354C1174.92 53.192 1174.96 53.3338 1175.03 53.4607C1175.1 53.5834 1175.2 53.6808 1175.34 53.7527C1175.47 53.8204 1175.63 53.8543 1175.82 53.8543C1176.09 53.8543 1176.33 53.7993 1176.53 53.6892C1176.74 53.5792 1176.89 53.4438 1177 53.283C1177.12 53.1222 1177.18 52.9698 1177.18 52.826L1177.66 53.6004C1177.59 53.7739 1177.5 53.9537 1177.38 54.1399C1177.27 54.3261 1177.12 54.5017 1176.95 54.6668C1176.77 54.8276 1176.55 54.9609 1176.3 55.0667C1176.05 55.1682 1175.76 55.219 1175.42 55.219C1174.98 55.219 1174.58 55.1323 1174.23 54.9588C1173.88 54.781 1173.6 54.5377 1173.39 54.2288C1173.19 53.9156 1173.09 53.5602 1173.09 53.1624C1173.09 52.8027 1173.15 52.4832 1173.29 52.2039C1173.42 51.9246 1173.62 51.6897 1173.89 51.4993C1174.15 51.3046 1174.48 51.1586 1174.88 51.0613C1175.28 50.9597 1175.74 50.909 1176.27 50.909H1177.33ZM1184.2 48.2239V49.5188H1180.2V48.2239H1184.2ZM1181.19 46.5291H1183.02V53.0227C1183.02 53.2216 1183.04 53.374 1183.09 53.4798C1183.15 53.5856 1183.23 53.6596 1183.34 53.7019C1183.44 53.74 1183.58 53.7591 1183.74 53.7591C1183.85 53.7591 1183.95 53.7548 1184.04 53.7464C1184.13 53.7337 1184.21 53.721 1184.28 53.7083L1184.28 55.054C1184.13 55.1048 1183.96 55.145 1183.77 55.1746C1183.59 55.2042 1183.39 55.219 1183.17 55.219C1182.77 55.219 1182.42 55.1534 1182.12 55.0222C1181.82 54.8868 1181.59 54.671 1181.43 54.3748C1181.27 54.0786 1181.19 53.6892 1181.19 53.2068V46.5291ZM1189.8 53.594V45.3421H1191.64V55.0921H1189.98L1189.8 53.594ZM1185.45 51.7405V51.6072C1185.45 51.0825 1185.51 50.6064 1185.63 50.179C1185.75 49.7473 1185.92 49.3771 1186.15 49.0681C1186.38 48.7592 1186.66 48.5201 1187 48.3509C1187.33 48.1816 1187.71 48.097 1188.14 48.097C1188.54 48.097 1188.89 48.1816 1189.19 48.3509C1189.5 48.5201 1189.76 48.7613 1189.97 49.0745C1190.18 49.3834 1190.36 49.7495 1190.49 50.1726C1190.62 50.5916 1190.71 51.0507 1190.77 51.5501V51.8421C1190.71 52.3203 1190.62 52.7646 1190.49 53.1751C1190.36 53.5856 1190.18 53.9453 1189.97 54.2542C1189.76 54.5589 1189.5 54.7958 1189.19 54.9651C1188.89 55.1344 1188.53 55.219 1188.13 55.219C1187.7 55.219 1187.32 55.1323 1186.98 54.9588C1186.65 54.7853 1186.38 54.5419 1186.15 54.2288C1185.92 53.9156 1185.75 53.5475 1185.63 53.1243C1185.51 52.7011 1185.45 52.2399 1185.45 51.7405ZM1187.28 51.6072V51.7405C1187.28 52.024 1187.3 52.2885 1187.35 52.534C1187.39 52.7794 1187.47 52.9973 1187.57 53.1878C1187.67 53.374 1187.81 53.52 1187.97 53.6258C1188.14 53.7273 1188.35 53.7781 1188.59 53.7781C1188.9 53.7781 1189.16 53.7083 1189.36 53.5686C1189.57 53.4248 1189.72 53.228 1189.83 52.9783C1189.94 52.7286 1190 52.4409 1190.02 52.115V51.2835C1190.01 51.0169 1189.97 50.7778 1189.9 50.5662C1189.85 50.3504 1189.76 50.1663 1189.64 50.0139C1189.52 49.8616 1189.38 49.7431 1189.21 49.6585C1189.04 49.5738 1188.84 49.5315 1188.6 49.5315C1188.37 49.5315 1188.16 49.5865 1187.99 49.6966C1187.82 49.8024 1187.69 49.9484 1187.58 50.1346C1187.48 50.3207 1187.4 50.5408 1187.35 50.7947C1187.31 51.0444 1187.28 51.3152 1187.28 51.6072ZM1197.27 53.5432V50.4837C1197.27 50.2636 1197.24 50.0753 1197.16 49.9187C1197.09 49.7579 1196.98 49.6331 1196.83 49.5442C1196.68 49.4554 1196.49 49.4109 1196.25 49.4109C1196.05 49.4109 1195.87 49.4469 1195.72 49.5188C1195.58 49.5865 1195.46 49.686 1195.38 49.8172C1195.3 49.9441 1195.26 50.0944 1195.26 50.2679H1193.43C1193.43 49.9759 1193.5 49.6987 1193.64 49.4363C1193.77 49.1739 1193.97 48.9433 1194.23 48.7444C1194.48 48.5413 1194.79 48.3826 1195.15 48.2683C1195.51 48.1541 1195.91 48.097 1196.35 48.097C1196.89 48.097 1197.36 48.1858 1197.77 48.3636C1198.19 48.5413 1198.51 48.8079 1198.75 49.1634C1198.99 49.5188 1199.11 49.9632 1199.11 50.4964V53.4353C1199.11 53.812 1199.14 54.1209 1199.18 54.3621C1199.23 54.5991 1199.3 54.8064 1199.39 54.9842V55.0921H1197.54C1197.45 54.9059 1197.38 54.6731 1197.34 54.3938C1197.29 54.1103 1197.27 53.8268 1197.27 53.5432ZM1197.51 50.909L1197.53 51.9436H1196.5C1196.26 51.9436 1196.05 51.9711 1195.88 52.0262C1195.7 52.0812 1195.55 52.1595 1195.44 52.261C1195.32 52.3583 1195.24 52.4726 1195.18 52.6038C1195.13 52.735 1195.11 52.8789 1195.11 53.0354C1195.11 53.192 1195.14 53.3338 1195.22 53.4607C1195.29 53.5834 1195.39 53.6808 1195.53 53.7527C1195.66 53.8204 1195.82 53.8543 1196 53.8543C1196.28 53.8543 1196.52 53.7993 1196.72 53.6892C1196.92 53.5792 1197.08 53.4438 1197.19 53.283C1197.3 53.1222 1197.36 52.9698 1197.37 52.826L1197.85 53.6004C1197.78 53.7739 1197.69 53.9537 1197.57 54.1399C1197.46 54.3261 1197.31 54.5017 1197.13 54.6668C1196.96 54.8276 1196.74 54.9609 1196.49 55.0667C1196.24 55.1682 1195.95 55.219 1195.6 55.219C1195.17 55.219 1194.77 55.1323 1194.42 54.9588C1194.06 54.781 1193.79 54.5377 1193.58 54.2288C1193.38 53.9156 1193.27 53.5602 1193.27 53.1624C1193.27 52.8027 1193.34 52.4832 1193.48 52.2039C1193.61 51.9246 1193.81 51.6897 1194.07 51.4993C1194.34 51.3046 1194.67 51.1586 1195.07 51.0613C1195.47 50.9597 1195.93 50.909 1196.45 50.909H1197.51ZM1202.81 49.6902V55.0921H1200.98V48.2239H1202.7L1202.81 49.6902ZM1202.55 51.4168H1202.05C1202.05 50.909 1202.12 50.4519 1202.25 50.0457C1202.38 49.6352 1202.56 49.2861 1202.8 48.9983C1203.04 48.7063 1203.32 48.4842 1203.64 48.3318C1203.97 48.1752 1204.34 48.097 1204.75 48.097C1205.07 48.097 1205.36 48.1435 1205.63 48.2366C1205.9 48.3297 1206.13 48.4778 1206.32 48.6809C1206.51 48.8841 1206.66 49.1528 1206.76 49.4871C1206.87 49.8214 1206.92 50.2298 1206.92 50.7122V55.0921H1205.08V50.7058C1205.08 50.4012 1205.04 50.1642 1204.95 49.9949C1204.87 49.8256 1204.74 49.7071 1204.58 49.6394C1204.42 49.5675 1204.22 49.5315 1203.98 49.5315C1203.74 49.5315 1203.52 49.5802 1203.34 49.6775C1203.16 49.7749 1203.01 49.9103 1202.9 50.0838C1202.78 50.253 1202.69 50.4519 1202.63 50.6805C1202.58 50.909 1202.55 51.1544 1202.55 51.4168ZM1212.25 51.7278V51.5945C1212.25 51.0909 1212.33 50.6276 1212.47 50.2044C1212.61 49.777 1212.82 49.4067 1213.1 49.0935C1213.37 48.7804 1213.71 48.5371 1214.11 48.3636C1214.52 48.1858 1214.98 48.097 1215.5 48.097C1216.02 48.097 1216.48 48.1858 1216.89 48.3636C1217.29 48.5371 1217.64 48.7804 1217.91 49.0935C1218.19 49.4067 1218.4 49.777 1218.55 50.2044C1218.69 50.6276 1218.76 51.0909 1218.76 51.5945V51.7278C1218.76 52.2272 1218.69 52.6905 1218.55 53.118C1218.4 53.5411 1218.19 53.9114 1217.91 54.2288C1217.64 54.5419 1217.3 54.7853 1216.9 54.9588C1216.49 55.1323 1216.03 55.219 1215.51 55.219C1214.99 55.219 1214.53 55.1323 1214.12 54.9588C1213.72 54.7853 1213.38 54.5419 1213.1 54.2288C1212.82 53.9114 1212.61 53.5411 1212.47 53.118C1212.33 52.6905 1212.25 52.2272 1212.25 51.7278ZM1214.08 51.5945V51.7278C1214.08 52.0156 1214.11 52.2843 1214.16 52.534C1214.21 52.7836 1214.29 53.0037 1214.4 53.1941C1214.51 53.3803 1214.66 53.5263 1214.84 53.6321C1215.03 53.7379 1215.25 53.7908 1215.51 53.7908C1215.77 53.7908 1215.98 53.7379 1216.17 53.6321C1216.35 53.5263 1216.49 53.3803 1216.6 53.1941C1216.71 53.0037 1216.79 52.7836 1216.84 52.534C1216.9 52.2843 1216.93 52.0156 1216.93 51.7278V51.5945C1216.93 51.3152 1216.9 51.0528 1216.84 50.8074C1216.79 50.5577 1216.71 50.3377 1216.6 50.1472C1216.49 49.9526 1216.34 49.8002 1216.16 49.6902C1215.98 49.5802 1215.76 49.5252 1215.5 49.5252C1215.24 49.5252 1215.02 49.5802 1214.84 49.6902C1214.66 49.8002 1214.51 49.9526 1214.4 50.1472C1214.29 50.3377 1214.21 50.5577 1214.16 50.8074C1214.11 51.0528 1214.08 51.3152 1214.08 51.5945ZM1221.41 45.3421V46.3069C1221.41 46.582 1221.35 46.8655 1221.25 47.1575C1221.15 47.4495 1221.01 47.7267 1220.84 47.989C1220.66 48.2472 1220.47 48.4672 1220.26 48.6492L1219.41 48.1541C1219.56 47.9044 1219.7 47.6336 1219.81 47.3416C1219.92 47.0454 1219.97 46.7026 1219.97 46.3133V45.3421H1221.41ZM1226.58 48.2239V49.5188H1222.59V48.2239H1226.58ZM1223.58 46.5291H1225.4V53.0227C1225.4 53.2216 1225.43 53.374 1225.48 53.4798C1225.54 53.5856 1225.62 53.6596 1225.72 53.7019C1225.83 53.74 1225.96 53.7591 1226.12 53.7591C1226.24 53.7591 1226.34 53.7548 1226.43 53.7464C1226.52 53.7337 1226.6 53.721 1226.66 53.7083L1226.67 55.054C1226.51 55.1048 1226.34 55.145 1226.16 55.1746C1225.98 55.2042 1225.78 55.219 1225.56 55.219C1225.15 55.219 1224.8 55.1534 1224.5 55.0222C1224.21 54.8868 1223.98 54.671 1223.82 54.3748C1223.66 54.0786 1223.58 53.6892 1223.58 53.2068V46.5291ZM1230.06 48.2239V55.0921H1228.22V48.2239H1230.06ZM1228.11 46.4339C1228.11 46.1673 1228.2 45.9472 1228.39 45.7737C1228.57 45.6002 1228.82 45.5135 1229.14 45.5135C1229.44 45.5135 1229.69 45.6002 1229.88 45.7737C1230.07 45.9472 1230.16 46.1673 1230.16 46.4339C1230.16 46.7005 1230.07 46.9205 1229.88 47.094C1229.69 47.2675 1229.44 47.3543 1229.14 47.3543C1228.82 47.3543 1228.57 47.2675 1228.39 47.094C1228.2 46.9205 1228.11 46.7005 1228.11 46.4339ZM1235.78 53.1941C1235.78 53.0629 1235.74 52.9444 1235.67 52.8387C1235.59 52.7329 1235.45 52.6355 1235.24 52.5467C1235.04 52.4536 1234.74 52.3689 1234.36 52.2928C1234.01 52.2166 1233.69 52.1214 1233.39 52.0071C1233.09 51.8886 1232.83 51.7469 1232.61 51.5818C1232.4 51.4168 1232.23 51.2221 1232.1 50.9978C1231.98 50.7693 1231.92 50.5091 1231.92 50.2171C1231.92 49.9293 1231.98 49.6585 1232.1 49.4046C1232.23 49.1507 1232.41 48.9264 1232.64 48.7317C1232.88 48.5328 1233.17 48.3784 1233.51 48.2683C1233.85 48.1541 1234.24 48.097 1234.66 48.097C1235.26 48.097 1235.77 48.1922 1236.2 48.3826C1236.63 48.573 1236.96 48.8354 1237.19 49.1697C1237.42 49.4998 1237.54 49.8764 1237.54 50.2996H1235.71C1235.71 50.1219 1235.67 49.9632 1235.6 49.8235C1235.52 49.6796 1235.41 49.5675 1235.25 49.4871C1235.1 49.4025 1234.9 49.3601 1234.66 49.3601C1234.45 49.3601 1234.28 49.3961 1234.13 49.468C1233.98 49.5358 1233.87 49.6289 1233.79 49.7473C1233.71 49.8616 1233.67 49.9886 1233.67 50.1282C1233.67 50.234 1233.69 50.3292 1233.74 50.4138C1233.78 50.4943 1233.86 50.5683 1233.96 50.636C1234.06 50.7037 1234.19 50.7672 1234.35 50.8264C1234.52 50.8815 1234.72 50.9322 1234.96 50.9788C1235.46 51.0804 1235.9 51.2137 1236.29 51.3787C1236.68 51.5395 1236.99 51.7596 1237.21 52.0388C1237.44 52.3139 1237.56 52.6757 1237.56 53.1243C1237.56 53.429 1237.49 53.7083 1237.35 53.9622C1237.22 54.2161 1237.02 54.4383 1236.77 54.6287C1236.52 54.8149 1236.21 54.9609 1235.86 55.0667C1235.5 55.1682 1235.11 55.219 1234.67 55.219C1234.03 55.219 1233.49 55.1048 1233.04 54.8763C1232.6 54.6477 1232.27 54.3579 1232.04 54.0066C1231.82 53.6512 1231.7 53.2872 1231.7 52.9148H1233.44C1233.45 53.1645 1233.51 53.3655 1233.63 53.5179C1233.75 53.6702 1233.91 53.7802 1234.09 53.8479C1234.28 53.9156 1234.49 53.9495 1234.71 53.9495C1234.94 53.9495 1235.14 53.9178 1235.3 53.8543C1235.45 53.7866 1235.57 53.6977 1235.65 53.5877C1235.74 53.4734 1235.78 53.3422 1235.78 53.1941ZM1241.03 45.3421V55.0921H1239.2V45.3421H1241.03ZM1240.77 51.4168H1240.27C1240.27 50.9386 1240.33 50.4985 1240.46 50.0965C1240.58 49.6902 1240.75 49.339 1240.98 49.0428C1241.21 48.7423 1241.48 48.5096 1241.8 48.3445C1242.12 48.1795 1242.48 48.097 1242.87 48.097C1243.21 48.097 1243.51 48.1456 1243.79 48.243C1244.07 48.336 1244.31 48.4884 1244.51 48.7C1244.71 48.9073 1244.87 49.1803 1244.98 49.5188C1245.09 49.8574 1245.14 50.2679 1245.14 50.7503V55.0921H1243.3V50.7376C1243.3 50.4329 1243.26 50.1938 1243.17 50.0203C1243.08 49.8426 1242.96 49.7177 1242.79 49.6458C1242.63 49.5696 1242.43 49.5315 1242.2 49.5315C1241.93 49.5315 1241.71 49.5802 1241.52 49.6775C1241.34 49.7749 1241.19 49.9103 1241.08 50.0838C1240.97 50.253 1240.89 50.4519 1240.84 50.6805C1240.79 50.909 1240.77 51.1544 1240.77 51.4168Z" fill="white"/>
</g>
<defs>
<filter id="filter0_d_1_31" x="-10" y="-1" width="1460" height="111.184" filterUnits="userSpaceOnUse" color-interpolation-filters="sRGB">
<feFlood flood-opacity="0" result="BackgroundImageFix"/>
<feColorMatrix in="SourceAlpha" type="matrix" values="0 0 0 0 0 0 0 0 0 0 0 0 0 0 0 0 0 0 127 0" result="hardAlpha"/>
<feOffset dy="4"/>
<feGaussianBlur stdDeviation="5"/>
<feComposite in2="hardAlpha" operator="out"/>
<feColorMatrix type="matrix" values="0 0 0 0 0 0 0 0 0 0 0 0 0 0 0 0 0 0 0.05 0"/>
<feBlend mode="normal" in2="BackgroundImageFix" result="effect1_dropShadow_1_31"/>
<feBlend mode="normal" in="SourceGraphic" in2="effect1_dropShadow_1_31" result="shape"/>
</filter>
<clipPath id="clip0_1_31">
<rect width="38" height="59.1841" fill="white" transform="translate(170 21)"/>
</clipPath>
</defs>
</svg>
