<svg width="40" height="51" viewBox="0 0 40 51" fill="none" xmlns="http://www.w3.org/2000/svg">
<path fill-rule="evenodd" clip-rule="evenodd" d="M23.2418 0.129737C24.4074 0.497153 25.2 1.57809 25.2 2.8002V16.8002L36.4 16.8002C37.4441 16.8002 38.4014 17.3811 38.8836 18.3071C39.3657 19.2332 39.2926 20.3506 38.6939 21.2059L19.0939 49.2059C18.393 50.2071 17.1238 50.6381 15.9582 50.2707C14.7926 49.9033 14 48.8223 14 47.6002L14 33.6002H2.80001C1.75596 33.6002 0.798622 33.0193 0.316468 32.0933C-0.165686 31.1672 -0.0925654 30.0498 0.506159 29.1945L20.1062 1.19451C20.807 0.193312 22.0762 -0.23768 23.2418 0.129737Z" fill="#FF7500"/>
</svg>
