<svg width="45" height="45" viewBox="0 0 45 45" fill="none" xmlns="http://www.w3.org/2000/svg">
<path fill-rule="evenodd" clip-rule="evenodd" d="M8.4 0C9.9464 0 11.2 1.2536 11.2 2.8V5.6H14C15.5464 5.6 16.8 6.8536 16.8 8.4C16.8 9.9464 15.5464 11.2 14 11.2H11.2V14C11.2 15.5464 9.9464 16.8 8.4 16.8C6.8536 16.8 5.6 15.5464 5.6 14V11.2H2.8C1.2536 11.2 0 9.9464 0 8.4C0 6.8536 1.2536 5.6 2.8 5.6H5.6V2.8C5.6 1.2536 6.8536 0 8.4 0ZM8.4 28C9.9464 28 11.2 29.2536 11.2 30.8V33.6H14C15.5464 33.6 16.8 34.8536 16.8 36.4C16.8 37.9464 15.5464 39.2 14 39.2H11.2V42C11.2 43.5464 9.9464 44.8 8.4 44.8C6.8536 44.8 5.6 43.5464 5.6 42V39.2H2.8C1.2536 39.2 0 37.9464 0 36.4C0 34.8536 1.2536 33.6 2.8 33.6H5.6V30.8C5.6 29.2536 6.8536 28 8.4 28Z" fill="#FF7500"/>
<path fill-rule="evenodd" clip-rule="evenodd" d="M27.9999 0C29.2703 0 30.3815 0.855351 30.7066 2.0835L34.0084 14.557L43.3991 19.9747C44.2658 20.4747 44.7999 21.3993 44.7999 22.4C44.7999 23.4007 44.2658 24.3253 43.3991 24.8253L34.0084 30.243L30.7066 42.7165C30.3815 43.9446 29.2703 44.8 27.9999 44.8C26.7294 44.8 25.6182 43.9446 25.2931 42.7165L21.9913 30.243L12.6008 24.8253C11.734 24.3253 11.2 23.4007 11.2 22.4C11.2 21.3993 11.734 20.4747 12.6008 19.9747L21.9913 14.557L25.2931 2.0835C25.6182 0.855351 26.7294 0 27.9999 0Z" fill="#FF7500"/>
</svg>
